[h264 @ 0x5556e315ce80] Reinit context to 848x480, pix_fmt: yuv420p
Input #0, mov,mp4,m4a,3gp,3g2,mj2, from '/var/www/html/project/media/video/original/IMG_0738.MOV':
  Metadata:
    major_brand     : qt  
    minor_version   : 0
    compatible_brands: qt  
    creation_time   : 2022-03-02T19:08:05.000000Z
  Duration: 00:00:15.95, start: 0.000000, bitrate: 1689 kb/s
    Stream #0:0(und): Audio: aac (LC) (mp4a / 0x6134706D), 44100 Hz, stereo, fltp, 63 kb/s (default)
    Metadata:
      creation_time   : 2022-03-02T19:08:05.000000Z
      handler_name    : Core Media Audio
    Stream #0:1(und): Video: h264 (Baseline), 1 reference frame (avc1 / 0x31637661), yuv420p(tv, bt709, progressive, left), 848x480, 1623 kb/s, 29.98 fps, 29.97 tbr, 600 tbn, 1200 tbc (default)
    Metadata:
      rotate          : 90
      creation_time   : 2022-03-02T19:08:05.000000Z
      handler_name    : Core Media Video
      encoder         : 'avc1'
    Side data:
      displaymatrix: rotation of -90.00 degrees
Input #1, png_pipe, from '/var/www/html/project/static/images/templates/logo.png':
  Duration: N/A, bitrate: N/A
    Stream #1:0: Video: png, 1 reference frame, rgba(pc), 1920x1080 [SAR 2835:2835 DAR 16:9], 25 tbr, 25 tbn, 25 tbc
[h264 @ 0x5556e31a2b80] Reinit context to 1280x720, pix_fmt: yuv420p
Input #2, mov,mp4,m4a,3gp,3g2,mj2, from '/var/www/html/project/static/images/templates/Codino.mp4':
  Metadata:
    major_brand     : mp42
    minor_version   : 1
    compatible_brands: isommp41mp42
    creation_time   : 2021-07-11T07:02:58.000000Z
  Duration: 00:00:02.00, start: 0.000000, bitrate: 1007 kb/s
    Stream #2:0(ita): Audio: aac (LC) (mp4a / 0x6134706D), 44100 Hz, stereo, fltp, 102 kb/s (default)
    Metadata:
      creation_time   : 2021-07-11T07:02:58.000000Z
      handler_name    : Core Media Audio
    Stream #2:1(und): Video: h264 (High), 1 reference frame (avc1 / 0x31637661), yuv420p(tv, bt709, progressive, left), 1280x720 [SAR 1:1 DAR 16:9], 813 kb/s, 25 fps, 25 tbr, 25k tbn, 50k tbc (default)
    Metadata:
      creation_time   : 2021-07-11T07:02:58.000000Z
      handler_name    : Core Media Video
[Parsed_scale_0 @ 0x5556e31f4940] w:1280 h:720 flags:'bilinear' interl:0
[Parsed_scale_2 @ 0x5556e31cdfc0] w:1280 h:720 flags:'bilinear' interl:0
[Parsed_scale_4 @ 0x5556e31e9e40] w:1280 h:720 flags:'bilinear' interl:0
Stream mapping:
  Stream #0:0 (aac) -> concat:in0:a0
  Stream #0:1 (h264) -> scale
  Stream #1:0 (png) -> scale
  Stream #2:0 (aac) -> concat:in1:a0
  Stream #2:1 (h264) -> scale
  concat:out:v0 -> Stream #0:0 (libx264)
  concat:out:a0 -> Stream #0:1 (aac)
Press [q] to stop, [?] for help
[h264 @ 0x5556e31ac380] Reinit context to 848x480, pix_fmt: yuv420p
[h264 @ 0x5556e3600300] Reinit context to 1280x720, pix_fmt: yuv420p
[Parsed_scale_0 @ 0x5556e41ffa40] w:1280 h:720 flags:'bilinear' interl:0
[Parsed_scale_2 @ 0x5556e32c6a80] w:1280 h:720 flags:'bilinear' interl:0
[Parsed_scale_4 @ 0x5556e4209640] w:1280 h:720 flags:'bilinear' interl:0
[graph 0 input from stream 0:1 @ 0x5556e420ddc0] w:848 h:480 pixfmt:yuv420p tb:1/600 fr:30000/1001 sar:0/1 sws_param:flags=2
[graph 0 input from stream 1:0 @ 0x5556e420f6c0] w:1920 h:1080 pixfmt:rgba tb:1/25 fr:25/1 sar:2835/2835 sws_param:flags=2
[graph 0 input from stream 2:1 @ 0x5556e4210680] w:1280 h:720 pixfmt:yuv420p tb:1/25000 fr:25/1 sar:1/1 sws_param:flags=2
[graph_0_in_0_0 @ 0x5556e4211640] tb:1/44100 samplefmt:fltp samplerate:44100 chlayout:0x3
[graph_0_in_2_0 @ 0x5556e4212780] tb:1/44100 samplefmt:fltp samplerate:44100 chlayout:0x3
[transpose @ 0x5556e420eb00] w:848 h:480 dir:1 -> w:480 h:848 rotation:clockwise vflip:0
[Parsed_scale_0 @ 0x5556e41ffa40] w:480 h:848 fmt:yuv420p sar:0/1 -> w:1280 h:720 fmt:yuv420p sar:0/1 flags:0x2
[Parsed_setsar_1 @ 0x5556e41ffec0] w:1280 h:720 sar:0/1 dar:16/9 -> sar:1/1 dar:16/9
[Parsed_scale_2 @ 0x5556e32c6a80] w:1920 h:1080 fmt:rgba sar:2835/2835 -> w:1280 h:720 fmt:yuva420p sar:1/1 flags:0x2
[Parsed_setsar_3 @ 0x5556e4208bc0] w:1280 h:720 sar:1/1 dar:16/9 -> sar:1/1 dar:16/9
[Parsed_overlay_6 @ 0x5556e420acc0] main w:1280 h:720 fmt:yuv420p overlay w:1280 h:720 fmt:yuva420p
[Parsed_overlay_6 @ 0x5556e420acc0] [framesync @ 0x5556e420ae28] Selected 1/600 time base
[Parsed_overlay_6 @ 0x5556e420acc0] [framesync @ 0x5556e420ae28] Sync level 2
[Parsed_scale_4 @ 0x5556e4209640] w:1280 h:720 fmt:yuv420p sar:1/1 -> w:1280 h:720 fmt:yuv420p sar:1/1 flags:0x2
[Parsed_setsar_5 @ 0x5556e420a140] w:1280 h:720 sar:1/1 dar:16/9 -> sar:1/1 dar:16/9
[libx264 @ 0x5556e31dc440] using SAR=1/1
[libx264 @ 0x5556e31dc440] using cpu capabilities: MMX2 SSE2Fast SSSE3 SSE4.2 AVX FMA3 BMI2 AVX2
[libx264 @ 0x5556e31dc440] profile High, level 3.1
[libx264 @ 0x5556e31dc440] 264 - core 155 r2917 0a84d98 - H.264/MPEG-4 AVC codec - Copyleft 2003-2018 - http://www.videolan.org/x264.html - options: cabac=1 ref=1 deblock=1:0:0 analyse=0x3:0x113 me=hex subme=2 psy=1 psy_rd=1.00:0.00 mixed_ref=0 me_range=16 chroma_me=1 trellis=0 8x8dct=1 cqm=0 deadzone=21,11 fast_pskip=1 chroma_qp_offset=0 threads=22 lookahead_threads=5 sliced_threads=0 nr=0 decimate=1 interlaced=0 bluray_compat=0 constrained_intra=0 bframes=3 b_pyramid=2 b_adapt=1 b_bias=0 direct=1 weightb=1 open_gop=0 weightp=1 keyint=250 keyint_min=25 scenecut=40 intra_refresh=0 rc_lookahead=10 rc=crf mbtree=1 crf=18.0 qcomp=0.60 qpmin=0 qpmax=69 qpstep=4 ip_ratio=1.40 aq=1:1.00
Output #0, mp4, to '/var/www/html/project/media/video/watermarks/IMG_0738.mp4':
  Metadata:
    major_brand     : qt  
    minor_version   : 0
    compatible_brands: qt  
    encoder         : Lavf58.29.100
    Stream #0:0: Video: h264 (libx264), 1 reference frame (avc1 / 0x31637661), yuv420p(progressive), 1280x720 [SAR 1:1 DAR 16:9], q=-1--1, 29.97 fps, 30k tbn, 29.97 tbc (default)
    Metadata:
      encoder         : Lavc58.54.100 libx264
    Side data:
      cpb: bitrate max/min/avg: 0/0/0 buffer size: 0 vbv_delay: -1
    Stream #0:1: Audio: aac (LC) (mp4a / 0x6134706D), 44100 Hz, stereo, fltp, delay 1024, 128 kb/s (default)
    Metadata:
      encoder         : Lavc58.54.100 aac
[Parsed_concat_7 @ 0x5556e420be00] EOF on in0:a0, 1 streams left in segment.
[Parsed_overlay_6 @ 0x5556e420acc0] [framesync @ 0x5556e420ae28] Sync level 0
[Parsed_concat_7 @ 0x5556e420be00] EOF on in0:v0, 0 streams left in segment.
[Parsed_concat_7 @ 0x5556e420be00] Segment finished at pts=15952109
[Parsed_concat_7 @ 0x5556e420be00] EOF on in1:a0, 1 streams left in segment.
[Parsed_concat_7 @ 0x5556e420be00] EOF on in1:v0, 0 streams left in segment.
[Parsed_concat_7 @ 0x5556e420be00] Segment finished at pts=17970794
No more output streams to write to, finishing.
frame=  528 fps=158 q=-1.0 Lsize=    7727kB time=00:00:17.97 bitrate=3522.0kbits/s speed=5.38x    
[AVIOContext @ 0x5556e3159440] Statistics: 0 seeks, 7 writeouts
video:7430kB audio:276kB subtitle:0kB other streams:0kB global headers:0kB muxing overhead: 0.260922%
Input file #0 (/var/www/html/project/media/video/original/IMG_0738.MOV):
  Input stream #0:0 (audio): 687 packets read (125840 bytes); 687 frames decoded (703488 samples); 
  Input stream #0:1 (video): 478 packets read (3235477 bytes); 478 frames decoded; 
  Total: 1165 packets (3361317 bytes) demuxed
Input file #1 (/var/www/html/project/static/images/templates/logo.png):
  Input stream #1:0 (video): 1 packets read (111578 bytes); 1 frames decoded; 
  Total: 1 packets (111578 bytes) demuxed
Input file #2 (/var/www/html/project/static/images/templates/Codino.mp4):
  Input stream #2:0 (audio): 89 packets read (26579 bytes); 87 frames decoded (89024 samples); 
  Input stream #2:1 (video): 50 packets read (203365 bytes); 50 frames decoded; 
  Total: 139 packets (229944 bytes) demuxed
Output file #0 (/var/www/html/project/media/video/watermarks/IMG_0738.mp4):
  Output stream #0:0 (video): 528 frames encoded; 528 packets muxed (7608790 bytes); 
  Output stream #0:1 (audio): 774 frames encoded (792512 samples); 775 packets muxed (282839 bytes); 
  Total: 1303 packets (7891629 bytes) muxed
[AVIOContext @ 0x5556e31deb40] Statistics: 2 seeks, 34 writeouts
[libx264 @ 0x5556e31dc440] frame I:3     Avg QP:12.18  size: 40067
[libx264 @ 0x5556e31dc440] frame P:150   Avg QP:16.89  size: 21597
[libx264 @ 0x5556e31dc440] frame B:375   Avg QP:18.93  size: 11329
[libx264 @ 0x5556e31dc440] consecutive B-frames:  3.4%  3.8%  5.7% 87.1%
[libx264 @ 0x5556e31dc440] mb I  I16..4: 46.9% 26.6% 26.4%
[libx264 @ 0x5556e31dc440] mb P  I16..4: 20.0% 34.5%  4.1%  P16..4: 12.1%  7.8%  3.2%  0.0%  0.0%    skip:18.3%
[libx264 @ 0x5556e31dc440] mb B  I16..4:  8.1%  9.9%  0.4%  B16..8: 28.6% 12.8%  0.9%  direct:14.7%  skip:24.6%  L0:45.5% L1:44.6% BI: 9.9%
[libx264 @ 0x5556e31dc440] 8x8 transform intra:56.1% inter:36.4%
[libx264 @ 0x5556e31dc440] coded y,uvDC,uvAC intra: 40.0% 65.3% 20.7% inter: 10.8% 45.5% 1.3%
[libx264 @ 0x5556e31dc440] i16 v,h,dc,p: 25% 56% 10%  9%
[libx264 @ 0x5556e31dc440] i8 v,h,dc,ddl,ddr,vr,hd,vl,hu:  9% 57% 16%  2%  2%  1%  6%  1%  5%
[libx264 @ 0x5556e31dc440] i4 v,h,dc,ddl,ddr,vr,hd,vl,hu: 12% 50% 12%  3%  4%  2%  8%  2%  6%
[libx264 @ 0x5556e31dc440] i8c dc,h,v,p: 37% 47%  8%  8%
[libx264 @ 0x5556e31dc440] Weighted P-Frames: Y:4.0% UV:0.0%
[libx264 @ 0x5556e31dc440] kb/s:3390.56
[aac @ 0x5556e31fa2c0] Qavg: 2848.504
[AVIOContext @ 0x5556e3162380] Statistics: 29902897 bytes read, 906 seeks
[AVIOContext @ 0x5556e31978c0] Statistics: 111578 bytes read, 0 seeks
[AVIOContext @ 0x5556e318a5c0] Statistics: 1530915 bytes read, 42 seeks
